<svg width="15" height="13" viewBox="0 0 15 13" fill="none" xmlns="http://www.w3.org/2000/svg">
<path d="M10.5331 9.33355C11.1466 8.99255 11.0671 7.67855 10.3561 6.39655C10.0511 5.84455 9.67611 5.39755 9.30111 5.08505C8.85269 5.41781 8.30952 5.59828 7.75111 5.60005C7.19186 5.59881 6.64773 5.41831 6.19862 5.08505C5.82362 5.39755 5.44961 5.84505 5.14361 6.39655C4.43211 7.67805 4.35362 8.99255 4.96862 9.33355C5.24262 9.48955 5.53162 9.37255 5.82962 9.08555C5.7738 9.39476 5.74585 9.70835 5.74611 10.0226C5.74611 11.4916 6.31611 12.6786 7.01761 12.6786C7.44061 12.6786 7.65012 12.2461 7.75062 11.5846C7.85062 12.2416 8.06062 12.6786 8.48062 12.6786C9.17912 12.6786 9.75361 11.4911 9.75361 10.0226C9.75361 9.69255 9.72261 9.37755 9.66961 9.08605C9.96961 9.37355 10.2576 9.49255 10.5326 9.33455L10.5331 9.33355ZM7.75011 5.10005C8.0338 5.10429 8.31549 5.05206 8.5788 4.9464C8.84211 4.84075 9.08177 4.68378 9.28385 4.48463C9.48592 4.28549 9.64637 4.04813 9.75585 3.78639C9.86533 3.52465 9.92166 3.24375 9.92156 2.96004C9.92146 2.67632 9.86494 2.39546 9.75527 2.1338C9.6456 1.87214 9.48499 1.6349 9.28278 1.43589C9.08056 1.23688 8.84079 1.08008 8.57741 0.974615C8.31402 0.869146 8.03229 0.817115 7.74861 0.821551C7.18692 0.830333 6.65121 1.05968 6.25716 1.46007C5.86312 1.86047 5.64237 2.39977 5.64256 2.96154C5.64276 3.52331 5.86389 4.06246 6.25822 4.46257C6.65254 4.86269 7.18841 5.09166 7.75011 5.10005ZM12.0471 6.45705C12.504 6.4437 12.9377 6.25281 13.2562 5.9249C13.5746 5.597 13.7528 5.1579 13.7528 4.7008C13.7528 4.2437 13.5746 3.8046 13.2562 3.4767C12.9377 3.14879 12.504 2.9579 12.0471 2.94455C11.5812 2.94462 11.1344 3.12977 10.805 3.45927C10.4756 3.78877 10.2905 4.23563 10.2906 4.70155C10.2907 5.16747 10.4758 5.61428 10.8053 5.94369C11.1348 6.27309 11.5817 6.45812 12.0476 6.45805L12.0471 6.45705ZM14.1871 7.52205C13.9361 7.06805 13.6291 6.70105 13.3211 6.44455C12.9527 6.71753 12.5066 6.86557 12.0481 6.86705C11.6701 6.86705 11.3181 6.76355 11.0101 6.59205C11.2581 7.13855 11.4116 7.69205 11.4401 8.18705C11.4871 8.94505 11.2501 9.50705 10.7761 9.76955C10.6746 9.82553 10.5641 9.86342 10.4496 9.88155C10.4211 10.0776 10.4016 10.2816 10.4016 10.4966C10.4016 11.7031 10.8691 12.6776 11.4456 12.6776C11.7926 12.6776 11.9656 12.3226 12.0476 11.7796C12.1291 12.3196 12.3016 12.6776 12.6476 12.6776C13.2201 12.6776 13.6926 11.7026 13.6926 10.4976C13.6926 10.2261 13.6661 9.96755 13.6226 9.72755C13.8686 9.96405 14.1056 10.0616 14.3316 9.93155C14.8351 9.65155 14.7701 8.57255 14.1866 7.52155L14.1871 7.52205ZM3.45311 6.45705C3.80038 6.45685 4.13978 6.3537 4.42842 6.16062C4.71706 5.96755 4.94198 5.69323 5.07473 5.37235C5.20749 5.05147 5.24212 4.69842 5.17425 4.35786C5.10638 4.01729 4.93906 3.7045 4.69344 3.45902C4.44782 3.21354 4.13493 3.04639 3.79433 2.97872C3.45372 2.91104 3.1007 2.94588 2.77989 3.07881C2.45908 3.21175 2.18489 3.43682 1.99198 3.72557C1.79908 4.01432 1.69611 4.35379 1.69611 4.70105C1.69625 5.167 1.8814 5.61382 2.21087 5.94329C2.54035 6.27276 2.98717 6.45792 3.45311 6.45805V6.45705ZM4.72061 9.76805C3.92461 9.32555 3.85161 8.00605 4.49261 6.59105C4.17579 6.77097 3.81795 6.8662 3.45361 6.86755C2.97561 6.86755 2.53761 6.70755 2.17861 6.44455C1.87111 6.70055 1.56461 7.06755 1.31261 7.52105C0.729115 8.57305 0.665115 9.65205 1.16911 9.93105C1.39411 10.0601 1.63161 9.96355 1.87611 9.72805C1.83163 9.98198 1.80905 10.2393 1.80861 10.4971C1.80861 11.7031 2.27611 12.6771 2.85261 12.6771C3.19961 12.6771 3.37261 12.3221 3.45461 11.7796C3.53711 12.3196 3.70961 12.6776 4.05461 12.6776C4.62811 12.6776 5.09962 11.7026 5.09962 10.4976C5.09962 10.2811 5.07962 10.0766 5.05112 9.88055C4.93534 9.86251 4.82365 9.82426 4.72111 9.76755L4.72061 9.76805Z" fill="black"/>
</svg>
