<svg width="16" height="16" viewBox="0 0 16 16" fill="none" xmlns="http://www.w3.org/2000/svg">
<path fill-rule="evenodd" clip-rule="evenodd" d="M1.88498 0.511025C2.05996 0.336314 2.27006 0.200783 2.50138 0.113415C2.7327 0.0260465 2.97994 -0.0111645 3.22672 0.00424771C3.47351 0.0196599 3.7142 0.0873434 3.93285 0.202813C4.15149 0.318282 4.34311 0.478901 4.49498 0.674025L6.28998 2.98002C6.61898 3.40302 6.73498 3.95402 6.60498 4.47402L6.05798 6.66402C6.0299 6.77746 6.03153 6.89623 6.0627 7.00886C6.09388 7.12148 6.15356 7.22418 6.23598 7.30702L8.69298 9.76402C8.77593 9.84661 8.87879 9.90639 8.99161 9.93758C9.10443 9.96876 9.2234 9.97029 9.33698 9.94203L11.526 9.39503C11.7826 9.33124 12.0504 9.32644 12.3091 9.381C12.5679 9.43556 12.8109 9.54805 13.02 9.71002L15.326 11.504C16.155 12.149 16.231 13.374 15.489 14.115L14.455 15.149C13.715 15.889 12.609 16.214 11.578 15.851C8.93866 14.9236 6.54252 13.4128 4.56798 11.431C2.58636 9.45677 1.07553 7.06099 0.147983 4.42202C-0.214017 3.39202 0.110983 2.28502 0.850983 1.54502L1.88498 0.511025Z" fill="black"/>
</svg>
