<svg width="126" height="126" viewBox="0 0 126 126" fill="none" xmlns="http://www.w3.org/2000/svg">
<path d="M63 113C76.2608 113 88.9785 107.732 98.3553 98.3553C107.732 88.9785 113 76.2608 113 63C113 49.7392 107.732 37.0215 98.3553 27.6447C88.9785 18.2678 76.2608 13 63 13C49.7392 13 37.0215 18.2678 27.6447 27.6447C18.2678 37.0215 13 49.7392 13 63C13 76.2608 18.2678 88.9785 27.6447 98.3553C37.0215 107.732 49.7392 113 63 113ZM63 125.5C28.4813 125.5 0.5 97.5187 0.5 63C0.5 28.4813 28.4813 0.5 63 0.5C97.5187 0.5 125.5 28.4813 125.5 63C125.5 97.5187 97.5187 125.5 63 125.5ZM63 88C69.6304 88 75.9893 85.3661 80.6777 80.6777C85.3661 75.9893 88 69.6304 88 63C88 56.3696 85.3661 50.0107 80.6777 45.3223C75.9893 40.6339 69.6304 38 63 38C56.3696 38 50.0107 40.6339 45.3223 45.3223C40.6339 50.0107 38 56.3696 38 63C38 69.6304 40.6339 75.9893 45.3223 80.6777C50.0107 85.3661 56.3696 88 63 88ZM63 100.5C53.0544 100.5 43.5161 96.5491 36.4835 89.5165C29.4509 82.4839 25.5 72.9456 25.5 63C25.5 53.0544 29.4509 43.5161 36.4835 36.4835C43.5161 29.4509 53.0544 25.5 63 25.5C72.9456 25.5 82.4839 29.4509 89.5165 36.4835C96.5491 43.5161 100.5 53.0544 100.5 63C100.5 72.9456 96.5491 82.4839 89.5165 89.5165C82.4839 96.5491 72.9456 100.5 63 100.5ZM63 75.5C59.6848 75.5 56.5054 74.183 54.1612 71.8388C51.817 69.4946 50.5 66.3152 50.5 63C50.5 59.6848 51.817 56.5054 54.1612 54.1612C56.5054 51.817 59.6848 50.5 63 50.5C66.3152 50.5 69.4946 51.817 71.8388 54.1612C74.183 56.5054 75.5 59.6848 75.5 63C75.5 66.3152 74.183 69.4946 71.8388 71.8388C69.4946 74.183 66.3152 75.5 63 75.5Z" fill="#0B43BC"/>
</svg>
