<svg width="20" height="20" viewBox="0 0 20 20" fill="none" xmlns="http://www.w3.org/2000/svg">
<path d="M19.7431 10.331L10.7431 0.331026C10.3641 -0.0909736 9.63612 -0.0909736 9.25712 0.331026L0.257116 10.331C0.127796 10.4747 0.0429125 10.6529 0.0127408 10.8438C-0.0174309 11.0348 0.00840309 11.2304 0.0871155 11.407C0.247115 11.768 0.605116 12 1.00012 12H3.00012V19C3.00012 19.2652 3.10547 19.5196 3.29301 19.7071C3.48055 19.8947 3.7349 20 4.00012 20H7.00012C7.26533 20 7.51969 19.8947 7.70722 19.7071C7.89476 19.5196 8.00012 19.2652 8.00012 19V15H12.0001V19C12.0001 19.2652 12.1055 19.5196 12.293 19.7071C12.4805 19.8947 12.7349 20 13.0001 20H16.0001C16.2653 20 16.5197 19.8947 16.7072 19.7071C16.8948 19.5196 17.0001 19.2652 17.0001 19V12H19.0001C19.1938 12.0009 19.3835 11.9453 19.5462 11.8402C19.7088 11.735 19.8373 11.5848 19.9161 11.4079C19.9949 11.231 20.0205 11.035 19.9897 10.8438C19.959 10.6525 19.8733 10.4744 19.7431 10.331Z" fill="black"/>
</svg>
