<svg width="118" height="130" viewBox="0 0 118 130" fill="none" xmlns="http://www.w3.org/2000/svg">
<path d="M52.75 2.5C25.1375 2.5 2.75 24.6562 2.75 51.9937C2.75 61.325 5.35625 70.0563 9.89375 77.5M74.625 58.75V71.25M93.375 58.75V71.25M74.625 8.75V21.25M93.375 8.75V21.25M65.25 30.625H52.75M65.25 49.375H52.75M115.25 30.625H102.75M115.25 49.375H102.75M71.5 108.75L70.6875 112.794C69.8125 117.212 69.3687 119.419 68.375 121.169C66.8437 123.866 64.3644 125.898 61.4188 126.869C59.5125 127.5 57.25 127.5 52.75 127.5C48.25 127.5 45.9875 127.5 44.0812 126.875C41.1346 125.902 38.6551 123.868 37.125 121.169C36.1313 119.419 35.6875 117.212 34.8125 112.794L34 108.75M90.25 21.25H77.75C71.8562 21.25 68.9125 21.25 67.0813 23.0813C65.25 24.9125 65.25 27.8562 65.25 33.75V46.25C65.25 52.1438 65.25 55.0875 67.0813 56.9187C68.9125 58.75 71.8562 58.75 77.75 58.75H90.25C96.1438 58.75 99.0875 58.75 100.919 56.9187C102.75 55.0875 102.75 52.1438 102.75 46.25V33.75C102.75 27.8562 102.75 24.9125 100.919 23.0813C99.0875 21.25 96.1438 21.25 90.25 21.25ZM23.8937 96.8625C23.3187 95.1375 23.0313 94.2687 23.0625 93.5687C23.0979 92.845 23.3422 92.1469 23.7659 91.5591C24.1896 90.9712 24.7745 90.5187 25.45 90.2563C26.1 90 27.0125 90 28.825 90H76.675C78.4938 90 79.4 90 80.05 90.25C80.7264 90.5129 81.312 90.9663 81.7358 91.5554C82.1596 92.1445 82.4033 92.8439 82.4375 93.5687C82.4687 94.2687 82.1812 95.1312 81.6062 96.8625C80.5437 100.056 80.0125 101.656 79.1937 102.95C77.4812 105.654 74.7969 107.598 71.6938 108.381C70.2063 108.75 68.5312 108.75 65.175 108.75H40.325C36.9688 108.75 35.2875 108.75 33.8062 108.375C30.7041 107.593 28.0199 105.651 26.3063 102.95C25.4875 101.656 24.9562 100.056 23.8937 96.8625Z" stroke="#0B43BC" stroke-width="4" stroke-linecap="round" stroke-linejoin="round"/>
</svg>
