<svg width="12" height="10" viewBox="0 0 12 10" fill="none" xmlns="http://www.w3.org/2000/svg">
<path fill-rule="evenodd" clip-rule="evenodd" d="M0 0.75C0 0.551088 0.0790175 0.360322 0.21967 0.21967C0.360322 0.0790175 0.551088 0 0.75 0H11.25C11.4489 0 11.6397 0.0790175 11.7803 0.21967C11.921 0.360322 12 0.551088 12 0.75C12 0.948912 11.921 1.13968 11.7803 1.28033C11.6397 1.42098 11.4489 1.5 11.25 1.5H0.75C0.551088 1.5 0.360322 1.42098 0.21967 1.28033C0.0790175 1.13968 0 0.948912 0 0.75ZM0 5C0 4.80109 0.0790175 4.61032 0.21967 4.46967C0.360322 4.32902 0.551088 4.25 0.75 4.25H11.25C11.4489 4.25 11.6397 4.32902 11.7803 4.46967C11.921 4.61032 12 4.80109 12 5C12 5.19891 11.921 5.38968 11.7803 5.53033C11.6397 5.67098 11.4489 5.75 11.25 5.75H0.75C0.551088 5.75 0.360322 5.67098 0.21967 5.53033C0.0790175 5.38968 0 5.19891 0 5ZM6 9.25C6 9.05109 6.07902 8.86032 6.21967 8.71967C6.36032 8.57902 6.55109 8.5 6.75 8.5H11.25C11.4489 8.5 11.6397 8.57902 11.7803 8.71967C11.921 8.86032 12 9.05109 12 9.25C12 9.44891 11.921 9.63968 11.7803 9.78033C11.6397 9.92098 11.4489 10 11.25 10H6.75C6.55109 10 6.36032 9.92098 6.21967 9.78033C6.07902 9.63968 6 9.44891 6 9.25Z" fill="black"/>
</svg>
