<svg width="20" height="19" viewBox="0 0 20 19" fill="none" xmlns="http://www.w3.org/2000/svg">
<path d="M20 11.478V16C20 16.7956 19.6839 17.5587 19.1213 18.1213C18.5587 18.6839 17.7956 19 17 19H3C2.20435 19 1.44129 18.6839 0.87868 18.1213C0.316071 17.5587 0 16.7956 0 16V11.478L0.553 11.755C3.48393 13.2312 6.72004 14 10.0017 13.9996C13.2834 13.9993 16.5194 13.2298 19.45 11.753L20 11.478ZM12 0C12.7956 0 13.5587 0.316071 14.1213 0.87868C14.6839 1.44129 15 2.20435 15 3V4H17C17.7956 4 18.5587 4.31607 19.1213 4.87868C19.6839 5.44129 20 6.20435 20 7V9.242L18.553 9.966C15.964 11.2711 13.1107 11.9664 10.2116 11.9986C7.31243 12.0309 4.44435 11.3992 1.827 10.152L1.18 9.832L0 9.242V7C0 6.20435 0.316071 5.44129 0.87868 4.87868C1.44129 4.31607 2.20435 4 3 4H5V3C5 2.20435 5.31607 1.44129 5.87868 0.87868C6.44129 0.316071 7.20435 0 8 0H12ZM10 8C9.73478 8 9.48043 8.10536 9.29289 8.29289C9.10536 8.48043 9 8.73478 9 9C8.99934 9.13132 9.02456 9.26149 9.07421 9.38306C9.12386 9.50464 9.19696 9.61525 9.28936 9.70857C9.38175 9.80189 9.49162 9.8761 9.6127 9.92697C9.73377 9.97783 9.86368 10.0043 9.995 10.005C10.1263 10.0057 10.2565 9.98044 10.3781 9.93079C10.4996 9.88114 10.6102 9.80804 10.7036 9.71564C10.7969 9.62325 10.8711 9.51338 10.922 9.3923C10.9728 9.27123 10.9993 9.14132 11 9.01C11 8.448 10.552 8 10 8ZM12 2H8C7.73478 2 7.48043 2.10536 7.29289 2.29289C7.10536 2.48043 7 2.73478 7 3V4H13V3C13 2.73478 12.8946 2.48043 12.7071 2.29289C12.5196 2.10536 12.2652 2 12 2Z" fill="black"/>
</svg>
