<svg width="14" height="14" viewBox="0 0 14 14" fill="none" xmlns="http://www.w3.org/2000/svg">
<path fill-rule="evenodd" clip-rule="evenodd" d="M9.997 0.219965C10.102 0.114674 10.2359 0.0429614 10.3817 0.0139387C10.5275 -0.015084 10.6787 -0.000107631 10.816 0.0569655L12.943 0.938965C13.1264 1.01471 13.2724 1.16006 13.3488 1.34318C13.4253 1.5263 13.4261 1.73227 13.351 1.91597L12.482 4.04297C12.4259 4.18031 12.3302 4.29792 12.2072 4.38091C12.0842 4.4639 11.9394 4.50854 11.791 4.50918C11.6426 4.50982 11.4974 4.46644 11.3737 4.38452C11.25 4.3026 11.1533 4.18582 11.096 4.04897L10.753 3.22897L2.115 6.91997C2.02439 6.95871 1.92703 6.97922 1.82849 6.98033C1.72995 6.98145 1.63216 6.96315 1.54069 6.92647C1.44923 6.88979 1.36588 6.83545 1.29541 6.76656C1.22495 6.69767 1.16874 6.61558 1.13 6.52497C1.09126 6.43435 1.07075 6.337 1.06963 6.23846C1.06852 6.13992 1.08682 6.04212 1.1235 5.95066C1.16018 5.85919 1.21451 5.77585 1.2834 5.70538C1.35229 5.63491 1.43439 5.57871 1.525 5.53997L10.174 1.84497L9.837 1.03997C9.77934 0.902828 9.76376 0.751638 9.79225 0.605624C9.82074 0.459609 9.89201 0.325366 9.997 0.219965ZM12.75 5.47997C13.0152 5.47997 13.2696 5.58532 13.4571 5.77286C13.6446 5.9604 13.75 6.21475 13.75 6.47997V13.48C13.75 13.6126 13.6973 13.7398 13.6036 13.8335C13.5098 13.9273 13.3826 13.98 13.25 13.98H10.75C10.6174 13.98 10.4902 13.9273 10.3964 13.8335C10.3027 13.7398 10.25 13.6126 10.25 13.48V6.47997C10.25 6.21475 10.3554 5.9604 10.5429 5.77286C10.7304 5.58532 10.9848 5.47997 11.25 5.47997H12.75ZM8.457 7.27197C8.26934 7.08478 8.01505 6.97976 7.75 6.97997H6.25C5.98478 6.97997 5.73043 7.08532 5.54289 7.27286C5.35536 7.4604 5.25 7.71475 5.25 7.97997V13.48C5.25 13.6126 5.30268 13.7398 5.39645 13.8335C5.49021 13.9273 5.61739 13.98 5.75 13.98H8.25C8.38261 13.98 8.50979 13.9273 8.60355 13.8335C8.69732 13.7398 8.75 13.6126 8.75 13.48V7.97997C8.7501 7.84849 8.72428 7.71828 8.674 7.59679C8.62373 7.4753 8.54998 7.36492 8.457 7.27197ZM2.75 8.47997C3.01522 8.47997 3.26957 8.58532 3.45711 8.77286C3.64464 8.96039 3.75 9.21475 3.75 9.47997V13.48C3.75 13.6126 3.69732 13.7398 3.60355 13.8335C3.50979 13.9273 3.38261 13.98 3.25 13.98H0.75C0.617392 13.98 0.490215 13.9273 0.396447 13.8335C0.302678 13.7398 0.25 13.6126 0.25 13.48V9.47997C0.25 9.21475 0.355357 8.96039 0.542893 8.77286C0.73043 8.58532 0.984784 8.47997 1.25 8.47997H2.75Z" fill="black"/>
</svg>
