<svg width="18" height="18" viewBox="0 0 18 18" fill="none" xmlns="http://www.w3.org/2000/svg">
<path fill-rule="evenodd" clip-rule="evenodd" d="M1 0C0.734784 0 0.48043 0.105357 0.292893 0.292893C0.105357 0.48043 0 0.734784 0 1V9C0 9.26522 0.105357 9.51957 0.292893 9.70711C0.48043 9.89464 0.734784 10 1 10H2V12C2.00004 12.1978 2.05871 12.391 2.1686 12.5555C2.27848 12.7199 2.43465 12.848 2.61735 12.9237C2.80005 12.9993 3.00108 13.0192 3.19503 12.9806C3.38898 12.942 3.56715 12.8468 3.707 12.707L6.414 10H12C12.2652 10 12.5196 9.89464 12.7071 9.70711C12.8946 9.51957 13 9.26522 13 9V1C13 0.734784 12.8946 0.48043 12.7071 0.292893C12.5196 0.105357 12.2652 0 12 0H1Z" fill="black"/>
<path fill-rule="evenodd" clip-rule="evenodd" d="M5.02295 14.215C5.05628 14.1843 5.08895 14.153 5.12095 14.121L7.24295 12H11.9999C12.7956 12 13.5587 11.6839 14.1213 11.1213C14.6839 10.5587 14.9999 9.79565 14.9999 9V5H16.9999C17.2652 5 17.5195 5.10536 17.7071 5.29289C17.8946 5.48043 17.9999 5.73478 17.9999 6V14C17.9999 14.2652 17.8946 14.5196 17.7071 14.7071C17.5195 14.8946 17.2652 15 16.9999 15H15.9999V17C15.9999 17.1978 15.9412 17.391 15.8314 17.5555C15.7215 17.7199 15.5653 17.848 15.3826 17.9237C15.1999 17.9993 14.9989 18.0192 14.8049 17.9806C14.611 17.942 14.4328 17.8468 14.2929 17.707L11.5859 15H5.99995C5.77202 15.0001 5.5509 14.9223 5.37322 14.7795C5.19553 14.6368 5.07195 14.4376 5.02295 14.215Z" fill="black"/>
</svg>
